<svg xmlns="http://www.w3.org/2000/svg" viewBox="0 0 436.3 209.8" style="enable-background:new 0 0 436.3 209.8" xml:space="preserve">
<path d="m221.2 74.1 20.2-35.2 68.6-4.4 2.4-4.3-63.4-4.4L263.9.1h117.6c36.2 0 62.9 13 52.5 50.9-3.1 11.6-17.8 40.6-61 52.7 9.2 1.1 32 11.2 28 37.4-7 46.5-67.1 68.6-100.6 68.6l-138.9.1-6.9-26.9 72.8-5.1 2.5-4.3-79-4.8-8.5-31.9 112.3-6.6 2.5-4.2-201.7-12.6 9.7-16.8 217.2-14.1 2.5-4.2-63.7-4.2m90.9 7 20-.1c13.4-.1 27.3-6.2 32.4-18.5 4.7-11.5-1.6-21.3-10-21.2h-19.4l-23 39.8zM289 121l-24.1 41.9h23c10.7 0 29.8-5.3 35.7-20.5 5.5-14.2-4.6-21.4-11.6-21.4h-23zm-175.2 64.7-14 23.9-99.8.2L9.7 193l104.1-7.3zm7-185.7 80.3.1 6.1 22.7-95.9-6L120.8 0zm90.9 40.8 8.8 33.3-137.1-9L93 48.4l118.7-7.6zm-69.8 96L124.5 167l-96.7-5.5 9.7-16.8 104.4-7.9z"/>
</svg>