<svg xmlns="http://www.w3.org/2000/svg" viewBox="0 0 144.1 111.3" style="enable-background:new 0 0 144.1 111.3" xml:space="preserve">
<path d="M13.6.9c-.9.2-1.8 3.4-3.7 5.3C8.6 7.4 7 7.4 6.1 8.9c-.4.5-.2 1.6-.6 2.5-.7 2-3.3 2.2-3.3 4.2 0 2.2 2.2 2.7 4 4.4 1.5 1.3 1.7 2.2 3.3 2.7 1.5.5 3.7-1.1 5.7-.5 1.7.5 3.3.9 3.7 2.5.4 1.6 0 4-2 3.6-.7 0-3.7-1.1-7.2-.7-4.4.5-9.4 1.8-9.7 6.7-.2 2.7 3.1 5.8 6.2 5.3 2.2-.4 1.1-3.1 2.4-4.4 1.7-1.6 10.6 5.6 19.1 5.6 3.5 0 6.2-.9 8.8-3.6.2-.2.6-.7.9-.7.4 0 .9.4 1.1.5 6.8 5.4 11.9 16.2 36.7 16.3 3.5 0 7.5 1.6 10.8 4.5 2.9 2.7 4.6 6.9 6.2 11.1 2.6 6.4 7 12.5 13.8 19.2.4.4 5.9 4.7 6.4 4.9 0 0 .6 1.1.4 1.6-.2 4.2-.7 16 8.3 16.5 2.2.2 1.7-1.5 1.7-2.5 0-2-.4-4.2.7-6.2 1.5-2.9-3.1-4.2-3.1-10.5.2-4.7-3.9-4-5.9-7.4-1.1-2-2.2-3.3-2.2-5.8.4-14.3-3.1-23.8-4.8-26-1.3-1.8-2.6-2.4-1.3-3.3 7.5-4.9 9.2-9.4 9.2-9.4 4-9.3 7.5-17.8 12.5-21.4.9-.7 3.5-2.7 5.1-3.4 4.6-2.2 7-3.4 8.3-4.7 2-2 3.9-6.4 1.8-8.9-2.6-3.3-6.8-.7-8.8.5-13.8 8.2-15.8 22.3-20.6 30.5-3.9 6.5-9.9 11.4-15.4 11.8-4.2.4-8.6-.5-13-2.5-10.8-4.7-16.7-10.7-18.2-11.8C64.3 27.9 41.9 6 23.5 5c0 0-2.2-4.5-2.8-4.5-1.3-.2-2.8 2.7-3.7 3.1-1 .5-2.5-2.9-3.4-2.7z"/></svg>