
1.05k → 401 bytes 37.3%
<svg xmlns="http://www.w3.org/2000/svg" width="300" height="85" xml:space="preserve">
<g style="fill:#000000">
<path d="M181.2 118.3c23.6-9.4 38.3-14.8 77.3-24.3-21.2 1.4-67.9 4.5-100.1 10.9-.1-.1 22.3 13.1 22.8 13.4zM107.8 149.6h30.9c6-9.2 12.3-13.8 19.2-18.8-5.3-2.1-10.7-4.1-16.2-6-19.7 8.6-30.7 20.2-33.9 24.8zM113.9 115.9c-27.5 9.8-42.8 20.6-53.1 33.7h34c3.3-4.7 16-18 39.8-27.2-6.7-2.3-18-5.8-20.7-6.5z" class="st0" style="fill:#000000" transform="matrix(1.44006 0 0 1.44006 -75.18 -133.68)"/>
<path d="M128.1 95.1H52.8c75.9 13.8 112.5 31.5 171.5 56.4-5.2-3.7-86.4-51.5-96.2-56.4z" class="st1" style="fill:#000000" transform="matrix(1.44006 0 0 1.44006 -75.18 -133.68)"/>
</g></svg>