<svg aria-hidden="true" class="logo logo-brand" fill="none" height="17" width="140" xmlns="http://www.w3.org/2000/svg"><g clip-path="url(#a)" fill="#000"><path d="m25.475.148-8.197 15.85h5.479l1.31-2.899h6.09l.522 2.9h5.478L32.991.149h-7.516Zm-.046 9.918 3.374-6.655h.046l1.017 6.655H25.43ZM45.217.148H39.94l-2.378 15.849h13.089l.543-3.804h-7.812L45.217.148ZM89.639.148l-5.07 11.888h-.046L83.119.148h-6.726l-5.862 15.849h5.161L79.54 4.56h.046l1.222 11.436h6.25l4.755-11.163h.044l.793 11.163h5.275L96.545.148H89.64ZM135.244.148l-1.788 11.615h-.044L128.386.148h-7.134l-2.376 15.849h5.025L125.44 4.63h.046l4.756 11.366h7.38L140 .148h-4.756ZM71.5 5.775c.452-2.445-.218-3.917-1.653-4.777-1.434-.86-3.646-.996-6.295-.996s-4.913.136-6.68.996c-1.766.86-2.987 2.34-3.44 4.777l-.84 4.586c-.451 2.443.22 3.893 1.678 4.753 1.458.86 3.644 1.02 6.293 1.02 2.648 0 4.959-.16 6.703-1.02 1.745-.86 2.944-2.31 3.396-4.753l.838-4.586Zm-5.367.437-.747 3.828c-.498 2.513-1.561 2.76-4.301 2.76s-3.736-.218-3.239-2.76l.758-3.828c.5-2.513 1.653-2.74 4.302-2.74 2.797.002 3.703.251 3.227 2.74ZM116.769 1.007c-1.45-.86-3.646-.996-6.295-.996s-4.913.135-6.679.996c-1.767.86-2.99 2.332-3.442 4.768l-.838 4.586c-.452 2.443.218 3.893 1.677 4.753 1.458.86 3.644 1.02 6.293 1.02 2.648 0 4.959-.16 6.701-1.02 1.743-.86 2.937-2.312 3.398-4.753l.836-4.586c.45-2.436-.225-3.908-1.651-4.768Zm-3.712 5.207-.738 3.828c-.498 2.513-1.563 2.76-4.301 2.76-2.739 0-3.736-.218-3.239-2.76l.736-3.83c.498-2.513 1.653-2.74 4.302-2.74 2.808.002 3.714.251 3.238 2.74l.002.002ZM15.877 8.865 8.19 5.08c-1.247-.611-1.339-.86-1.225-1.428.067-.34.273-.522 1.111-.612.522-.045 1.496-.07 2.448-.07.59 0 1.338.025 1.723.049 1.384.09 1.541.292 1.36 1.2l-.27 1.361h4.919l.498-2.496C19.163 1.022 18.438 0 15.763 0H6.898C3.634 0 2.771.59 2.273 3.083L1.98 4.557c-.295 1.498.113 2.358 2.358 3.47l5.69 2.788c1.655.817 1.79 1.02 1.677 1.566-.09.476-.27.611-1.092.679-.635.046-1.587.067-2.426.067-1.292 0-1.965-.021-2.517-.113-.655-.114-.815-.408-.725-.86l.316-1.588H.55l-.454 2.267c-.454 2.268.68 3.288 3.627 3.288h8.89c3.172 0 3.93-.908 4.419-3.334l.317-1.542c.227-1.155.045-1.63-1.472-2.38Z"/></g><defs><clipPath id="a"><path fill="#fff" d="M0 0h140v16.132H0z"/></clipPath></defs></svg>